<svg version="1.1" xmlns="http://www.w3.org/2000/svg" xmlns:xlink="http://www.w3.org/1999/xlink">

    <symbol id="search" viewBox="0 0 20 20">
        <path d="M19.7122 17.4798L15.1826 13.1289C16.296 11.7505 16.9605 10.0222 16.9605 8.14617C16.9605 3.65418 13.1563 1.3972e-08 8.47962 1.3972e-08C3.8042 -0.000260906 0 3.65392 0 8.14617C0 12.6384 3.8042 16.2929 8.47988 16.2929C10.4968 16.2929 12.3506 15.6121 13.8079 14.4784L18.322 18.8144C18.513 18.9989 18.7653 19.0912 19.0166 19.0912C19.2689 19.0912 19.5202 18.9989 19.7122 18.8144C20.096 18.4452 20.096 17.8487 19.7122 17.4798ZM1.96629 8.14617C1.96629 4.69603 4.88859 1.88958 8.47988 1.88958C12.0722 1.88958 14.9945 4.69603 14.9945 8.14617C14.9945 11.5963 12.0722 14.4046 8.47988 14.4046C4.88859 14.4046 1.96629 11.596 1.96629 8.14617Z"/>
    </symbol>

    <symbol id="arrow-link" viewBox="0 0 20 20">
        <path d="M7.85494 0.535034L6.54856 1.98212L11.7185 7.71913H0.442871V9.77173H11.7185L6.54856 15.5088L7.85494 16.9558L15.267 8.74543L7.85494 0.535034Z"/>
    </symbol>

    <symbol id="checkmark-home" viewBox="0 0 16 14" >
        <path d="M3.14364 5.70935C2.60756 5.07775 1.66097 5.00032 1.02938 5.53639C0.397781 6.07247 0.320348 7.01906 0.856425 7.65065L3.14364 5.70935ZM5.6667 11L4.52309 11.9707L5.61789 13.2605L6.76734 12.0191L5.6667 11ZM15.1006 3.01911C15.6635 2.41124 15.627 1.4622 15.0191 0.899358C14.4112 0.336518 13.4622 0.37302 12.8994 0.980887L15.1006 3.01911ZM0.856425 7.65065L4.52309 11.9707L6.8103 10.0293L3.14364 5.70935L0.856425 7.65065ZM6.76734 12.0191L15.1006 3.01911L12.8994 0.980887L4.56606 9.98089L6.76734 12.0191Z"/>
    </symbol>
</svg>
