<svg version="1.1" xmlns="http://www.w3.org/2000/svg" xmlns:xlink="http://www.w3.org/1999/xlink">

    <symbol id="search" viewBox="0 0 20 20">
        <path d="M19.7122 17.4798L15.1826 13.1289C16.296 11.7505 16.9605 10.0222 16.9605 8.14617C16.9605 3.65418 13.1563 1.3972e-08 8.47962 1.3972e-08C3.8042 -0.000260906 0 3.65392 0 8.14617C0 12.6384 3.8042 16.2929 8.47988 16.2929C10.4968 16.2929 12.3506 15.6121 13.8079 14.4784L18.322 18.8144C18.513 18.9989 18.7653 19.0912 19.0166 19.0912C19.2689 19.0912 19.5202 18.9989 19.7122 18.8144C20.096 18.4452 20.096 17.8487 19.7122 17.4798ZM1.96629 8.14617C1.96629 4.69603 4.88859 1.88958 8.47988 1.88958C12.0722 1.88958 14.9945 4.69603 14.9945 8.14617C14.9945 11.5963 12.0722 14.4046 8.47988 14.4046C4.88859 14.4046 1.96629 11.596 1.96629 8.14617Z"/>
    </symbol>

    <symbol id="arrow-link" viewBox="0 0 20 20">
        <path d="M7.85494 0.535034L6.54856 1.98212L11.7185 7.71913H0.442871V9.77173H11.7185L6.54856 15.5088L7.85494 16.9558L15.267 8.74543L7.85494 0.535034Z"/>
    </symbol>

    <symbol id="checkmark-home" viewBox="0 0 16 14" >
        <path d="M3.14364 5.70935C2.60756 5.07775 1.66097 5.00032 1.02938 5.53639C0.397781 6.07247 0.320348 7.01906 0.856425 7.65065L3.14364 5.70935ZM5.6667 11L4.52309 11.9707L5.61789 13.2605L6.76734 12.0191L5.6667 11ZM15.1006 3.01911C15.6635 2.41124 15.627 1.4622 15.0191 0.899358C14.4112 0.336518 13.4622 0.37302 12.8994 0.980887L15.1006 3.01911ZM0.856425 7.65065L4.52309 11.9707L6.8103 10.0293L3.14364 5.70935L0.856425 7.65065ZM6.76734 12.0191L15.1006 3.01911L12.8994 0.980887L4.56606 9.98089L6.76734 12.0191Z"/>
    </symbol>

    <symbol id="copy" viewBox="0 0 32 32">
        <path d="M25,12.88c-.19-3-1.93-4.74-5-4.87H6C3,8,1.13,9.88,1,13V25.08A4.78,4.78,0,0,0,5.87,30H20.13A4.86,4.86,0,0,0,25,25V13S25,12.92,25,12.88Z"/>
        <path d="M31,6.88c-.19-3-1.93-4.74-5-4.87H12A4.61,4.61,0,0,0,7.58,4.56,1,1,0,0,0,8.49,6H21a6,6,0,0,1,6,6V22.48a1,1,0,0,0,1.45.9A4.86,4.86,0,0,0,31,19V7S31,6.92,31,6.88Z"/>
    </symbol>

    <symbol>
        <svg id="budget" viewBox="0 0 29 25">
            <ellipse cx="10.805" cy="11.8053" rx="8.80503" ry="3.30189" fill="white" stroke="#414141" stroke-width="2"/>
            <path fill-rule="evenodd" clip-rule="evenodd" d="M19.6102 16.2079V11.8054C19.6102 13.6289 15.6681 15.1072 10.8052 15.1072C5.9423 15.1072 2.00015 13.6289 2.00015 11.8054V16.2079C2.00015 18.0315 5.9423 19.5098 10.8052 19.5098C15.6681 19.5098 19.6102 18.0315 19.6102 16.2079Z" fill="white"/>
            <path d="M18.6102 11.8054V16.2079H20.6102V11.8054H18.6102ZM18.6102 11.8054C18.6102 11.8726 18.5775 12.0563 18.2549 12.3423C17.9334 12.6273 17.4112 12.9297 16.6802 13.2038C15.2253 13.7494 13.1485 14.1072 10.8052 14.1072V16.1072C13.3248 16.1072 15.6504 15.726 17.3824 15.0765C18.2447 14.7531 19.012 14.3439 19.5817 13.8389C20.1502 13.3348 20.6102 12.6499 20.6102 11.8054H18.6102ZM10.8052 14.1072C8.46191 14.1072 6.38502 13.7494 4.93021 13.2038C4.19912 12.9297 3.67694 12.6273 3.3555 12.3423C3.0329 12.0563 3.00015 11.8726 3.00015 11.8054H1.00015C1.00015 12.6499 1.46017 13.3348 2.02869 13.8389C2.59837 14.3439 3.36566 14.7531 4.22796 15.0765C5.95995 15.726 8.28557 16.1072 10.8052 16.1072V14.1072ZM3.00015 16.2079V11.8054H1.00015V16.2079H3.00015ZM10.8052 18.5098C8.46191 18.5098 6.38502 18.1519 4.93021 17.6063C4.19912 17.3322 3.67694 17.0298 3.3555 16.7449C3.0329 16.4588 3.00015 16.2751 3.00015 16.2079H1.00015C1.00015 17.0524 1.46017 17.7373 2.02869 18.2414C2.59837 18.7465 3.36566 19.1556 4.22796 19.479C5.95995 20.1285 8.28557 20.5098 10.8052 20.5098V18.5098ZM18.6102 16.2079C18.6102 16.2751 18.5775 16.4588 18.2549 16.7449C17.9334 17.0298 17.4112 17.3322 16.6802 17.6063C15.2253 18.1519 13.1485 18.5098 10.8052 18.5098V20.5098C13.3248 20.5098 15.6504 20.1285 17.3824 19.479C18.2447 19.1556 19.012 18.7465 19.5817 18.2414C20.1502 17.7373 20.6102 17.0524 20.6102 16.2079H18.6102Z" fill="#414141"/>
            <ellipse cx="10.805" cy="11.8053" rx="8.80503" ry="3.30189" fill="white" stroke="#414141" stroke-width="2"/>
            <path fill-rule="evenodd" clip-rule="evenodd" d="M19.6102 16.2079V11.8054C19.6102 13.6289 15.6681 15.1072 10.8052 15.1072C5.9423 15.1072 2.00015 13.6289 2.00015 11.8054V16.2079C2.00015 18.0315 5.9423 19.5098 10.8052 19.5098C15.6681 19.5098 19.6102 18.0315 19.6102 16.2079Z" fill="white"/>
            <path d="M18.6102 11.8054V16.2079H20.6102V11.8054H18.6102ZM18.6102 11.8054C18.6102 11.8726 18.5775 12.0563 18.2549 12.3423C17.9334 12.6273 17.4112 12.9297 16.6802 13.2038C15.2253 13.7494 13.1485 14.1072 10.8052 14.1072V16.1072C13.3248 16.1072 15.6504 15.726 17.3824 15.0765C18.2447 14.7531 19.012 14.3439 19.5817 13.8389C20.1502 13.3348 20.6102 12.6499 20.6102 11.8054H18.6102ZM10.8052 14.1072C8.46191 14.1072 6.38502 13.7494 4.93021 13.2038C4.19912 12.9297 3.67694 12.6273 3.3555 12.3423C3.0329 12.0563 3.00015 11.8726 3.00015 11.8054H1.00015C1.00015 12.6499 1.46017 13.3348 2.02869 13.8389C2.59837 14.3439 3.36566 14.7531 4.22796 15.0765C5.95995 15.726 8.28557 16.1072 10.8052 16.1072V14.1072ZM3.00015 16.2079V11.8054H1.00015V16.2079H3.00015ZM10.8052 18.5098C8.46191 18.5098 6.38502 18.1519 4.93021 17.6063C4.19912 17.3322 3.67694 17.0298 3.3555 16.7449C3.0329 16.4588 3.00015 16.2751 3.00015 16.2079H1.00015C1.00015 17.0524 1.46017 17.7373 2.02869 18.2414C2.59837 18.7465 3.36566 19.1556 4.22796 19.479C5.95995 20.1285 8.28557 20.5098 10.8052 20.5098V18.5098ZM18.6102 16.2079C18.6102 16.2751 18.5775 16.4588 18.2549 16.7449C17.9334 17.0298 17.4112 17.3322 16.6802 17.6063C15.2253 18.1519 13.1485 18.5098 10.8052 18.5098V20.5098C13.3248 20.5098 15.6504 20.1285 17.3824 19.479C18.2447 19.1556 19.012 18.7465 19.5817 18.2414C20.1502 17.7373 20.6102 17.0524 20.6102 16.2079H18.6102Z" fill="#414141"/>
            <ellipse cx="19.3546" cy="9.96466" rx="8.80503" ry="3.30189" transform="rotate(27.2276 19.3546 9.96466)" fill="white" stroke="#414141" stroke-width="2"/>
            <path fill-rule="evenodd" clip-rule="evenodd" d="M25.1695 17.9079L27.1838 13.9932C26.3494 15.6148 22.1677 15.1256 17.8437 12.9007C13.5196 10.6758 10.6906 7.55769 11.525 5.93617L9.5107 9.85087C8.67636 11.4724 11.5053 14.5905 15.8294 16.8154C20.1535 19.0403 24.3352 19.5295 25.1695 17.9079Z" fill="white"/>
            <path d="M25.1695 17.9079L24.2803 17.4504L25.1695 17.9079ZM26.2946 13.5357L24.2803 17.4504L26.0587 18.3655L28.073 14.4508L26.2946 13.5357ZM26.2946 13.5357C26.2638 13.5955 26.1506 13.7439 25.7329 13.8506C25.3167 13.9569 24.7141 13.9869 23.9385 13.8962C22.3953 13.7156 20.3848 13.0836 18.3012 12.0115L17.3861 13.7899C19.6266 14.9427 21.8689 15.6677 23.7062 15.8826C24.6209 15.9896 25.4904 15.9768 26.228 15.7884C26.9641 15.6003 27.6865 15.2018 28.073 14.4508L26.2946 13.5357ZM18.3012 12.0115C16.2176 10.9394 14.5345 9.67096 13.4905 8.52025C12.9659 7.94197 12.6399 7.43423 12.4845 7.03376C12.3285 6.63184 12.3834 6.45346 12.4142 6.39369L10.6358 5.47864C10.2494 6.22963 10.345 7.0491 10.62 7.75741C10.8954 8.46716 11.3905 9.18205 12.0093 9.86411C13.2522 11.2341 15.1457 12.6371 17.3861 13.7899L18.3012 12.0115ZM10.3999 10.3084L12.4142 6.39369L10.6358 5.47864L8.6215 9.39334L10.3999 10.3084ZM16.2869 15.9262C14.2033 14.8541 12.5203 13.5857 11.4763 12.4349C10.9516 11.8567 10.6256 11.3489 10.4702 10.9485C10.3142 10.5465 10.3691 10.3682 10.3999 10.3084L8.6215 9.39334C8.23509 10.1443 8.33078 10.9638 8.60569 11.6721C8.88116 12.3819 9.37623 13.0968 9.99504 13.7788C11.2379 15.1488 13.1314 16.5518 15.3719 17.7046L16.2869 15.9262ZM24.2803 17.4504C24.2495 17.5102 24.1363 17.6586 23.7186 17.7653C23.3024 17.8716 22.6998 17.9016 21.9243 17.8109C20.3811 17.6303 18.3706 16.9983 16.2869 15.9262L15.3719 17.7046C17.6123 18.8574 19.8547 19.5824 21.6919 19.7973C22.6066 19.9043 23.4761 19.8915 24.2137 19.7031C24.9499 19.515 25.6723 19.1164 26.0587 18.3655L24.2803 17.4504Z" fill="#414141"/>
            <ellipse cx="19.3546" cy="9.96466" rx="8.80503" ry="3.30189" transform="rotate(27.2276 19.3546 9.96466)" fill="white" stroke="#414141" stroke-width="2"/>
            <path fill-rule="evenodd" clip-rule="evenodd" d="M25.1695 17.9079L27.1838 13.9932C26.3494 15.6148 22.1677 15.1256 17.8437 12.9007C13.5196 10.6758 10.6906 7.55769 11.525 5.93617L9.5107 9.85087C8.67636 11.4724 11.5053 14.5905 15.8294 16.8154C20.1535 19.0403 24.3352 19.5295 25.1695 17.9079Z" fill="white"/>
            <path d="M25.1695 17.9079L24.2803 17.4504L25.1695 17.9079ZM26.2946 13.5357L24.2803 17.4504L26.0587 18.3655L28.073 14.4508L26.2946 13.5357ZM26.2946 13.5357C26.2638 13.5955 26.1506 13.7439 25.7329 13.8506C25.3167 13.9569 24.7141 13.9869 23.9385 13.8962C22.3953 13.7156 20.3848 13.0836 18.3012 12.0115L17.3861 13.7899C19.6266 14.9427 21.8689 15.6677 23.7062 15.8826C24.6209 15.9896 25.4904 15.9768 26.228 15.7884C26.9641 15.6003 27.6865 15.2018 28.073 14.4508L26.2946 13.5357ZM18.3012 12.0115C16.2176 10.9394 14.5345 9.67096 13.4905 8.52025C12.9659 7.94197 12.6399 7.43423 12.4845 7.03376C12.3285 6.63184 12.3834 6.45346 12.4142 6.39369L10.6358 5.47864C10.2494 6.22963 10.345 7.0491 10.62 7.75741C10.8954 8.46716 11.3905 9.18205 12.0093 9.86411C13.2522 11.2341 15.1457 12.6371 17.3861 13.7899L18.3012 12.0115ZM10.3999 10.3084L12.4142 6.39369L10.6358 5.47864L8.6215 9.39334L10.3999 10.3084ZM16.2869 15.9262C14.2033 14.8541 12.5203 13.5857 11.4763 12.4349C10.9516 11.8567 10.6256 11.3489 10.4702 10.9485C10.3142 10.5465 10.3691 10.3682 10.3999 10.3084L8.6215 9.39334C8.23509 10.1443 8.33078 10.9638 8.60569 11.6721C8.88116 12.3819 9.37623 13.0968 9.99504 13.7788C11.2379 15.1488 13.1314 16.5518 15.3719 17.7046L16.2869 15.9262ZM24.2803 17.4504C24.2495 17.5102 24.1363 17.6586 23.7186 17.7653C23.3024 17.8716 22.6998 17.9016 21.9243 17.8109C20.3811 17.6303 18.3706 16.9983 16.2869 15.9262L15.3719 17.7046C17.6123 18.8574 19.8547 19.5824 21.6919 19.7973C22.6066 19.9043 23.4761 19.8915 24.2137 19.7031C24.9499 19.515 25.6723 19.1164 26.0587 18.3655L24.2803 17.4504Z" fill="#414141"/>

        </svg>
    </symbol>

    <symbol id="user" viewBox="0 0 24 24">
        <g transform="translate(0 -1028.4)">
            <path d="m12 1039.4c-1.277 0-2.4943 0.2-3.5938 0.7 0.6485 1.3 2.0108 2.3 3.5938 2.3s2.945-1 3.594-2.3c-1.1-0.5-2.317-0.7-3.594-0.7z"
                  fill="#95a5a6"/>
            <path d="m8.4062 1041.1c-2.8856 1.3-4.9781 4-5.3437 7.3 0 1.1 0.8329 2 1.9375 2h14c1.105 0 1.938-0.9 1.938-2-0.366-3.3-2.459-6-5.344-7.3-0.649 1.3-2.011 2.3-3.594 2.3s-2.9453-1-3.5938-2.3z"
                  fill="#d35400"/>
            <path d="m8.4062 1040.1c-2.8856 1.3-4.9781 4-5.3437 7.3 0 1.1 0.8329 2 1.9375 2h14c1.105 0 1.938-0.9 1.938-2-0.366-3.3-2.459-6-5.344-7.3-0.649 1.3-2.011 2.3-3.594 2.3s-2.9453-1-3.5938-2.3z"
                  fill="#FC1A40"/>
            <path d="m12 11c-1.147 0-2.2412 0.232-3.25 0.625 0.9405 0.616 2.047 1 3.25 1 1.206 0 2.308-0.381 3.25-1-1.009-0.393-2.103-0.625-3.25-0.625z"
                  fill="#7f8c8d" transform="translate(0 1028.4)"/>
            <path d="m17 4a5 5 0 1 1 -10 0 5 5 0 1 1 10 0z" fill="#bdc3c7" transform="translate(0 1031.4)"/>
            <path d="m8.4062 1040.1c-0.3172 0.2-0.6094 0.3-0.9062 0.5 0.8153 1.6 2.541 2.8 4.5 2.8s3.685-1.2 4.5-2.8c-0.297-0.2-0.589-0.3-0.906-0.5-0.649 1.3-2.011 2.3-3.594 2.3s-2.9453-1-3.5938-2.3z"
                  fill="#d35400" style="block-progression:tb;text-indent:0;color:#000000;text-transform:none"/>
        </g>
    </symbol>
    <symbol id="calendar-clock" viewBox="0 0 24 24">
        <g transform="translate(0 -1028.4)">
            <path d="m5 1032.4c-1.1046 0-2 0.9-2 2v14c0 1.1 0.8954 2 2 2h6 2 6c1.105 0 2-0.9 2-2v-14c0-1.1-0.895-2-2-2h-6-2-6z"
                  fill="#bdc3c7"/>
            <path d="m5 3c-1.1046 0-2 0.8954-2 2v14c0 1.105 0.8954 2 2 2h6 2 6c1.105 0 2-0.895 2-2v-14c0-1.1046-0.895-2-2-2h-6-2-6z"
                  fill="#ecf0f1" transform="translate(0 1028.4)"/>
            <path d="m5 3c-1.1046 0-2 0.8954-2 2v3 1h18v-1-3c0-1.1046-0.895-2-2-2h-6-2-6z" fill="#e74c3c"
                  transform="translate(0 1028.4)"/>
            <path d="m7 5.5a1.5 1.5 0 1 1 -3 0 1.5 1.5 0 1 1 3 0z" fill="#c0392b" transform="translate(.5 1028.4)"/>
            <path d="m6 1c-0.5523 0-1 0.4477-1 1v3c0 0.5523 0.4477 1 1 1s1-0.4477 1-1v-3c0-0.5523-0.4477-1-1-1z"
                  fill="#bdc3c7" transform="translate(0 1028.4)"/>
            <path d="m7 5.5a1.5 1.5 0 1 1 -3 0 1.5 1.5 0 1 1 3 0z" fill="#c0392b" transform="translate(12.5 1028.4)"/>
            <g fill="#bdc3c7">
                <path d="m18 1029.4c-0.552 0-1 0.4-1 1v3c0 0.5 0.448 1 1 1s1-0.5 1-1v-3c0-0.6-0.448-1-1-1z"/>
                <path d="m5 1039.4v2h2v-2h-2zm3 0v2h2v-2h-2zm3 0v2h2v-2h-2zm3 0v2h2v-2h-2zm3 0v2h2v-2h-2z"/>
                <path d="m5 1042.4v2h2v-2h-2zm3 0v2h2v-2h-2zm3 0v2h2v-2h-2zm3 0v2h2v-2h-2zm3 0v2h2v-2h-2z"/>
                <path d="m5 1045.4v2h2v-2h-2zm3 0v2h2v-2h-2zm3 0v2h2v-2h-2zm3 0v2h2v-2h-2zm3 0v2h2v-2h-2z"/>
            </g>
            <path d="m40 18a6 6 0 1 1 -12 0 6 6 0 1 1 12 0z" fill="#34495e"
                  transform="matrix(.82491 0 0 .82491 -9.5468 1032.1)"/>
            <path d="m18.5 14c-0.276 0-0.5 0.224-0.5 0.5v0.5 3 0.5c0 0.276 0.224 0.5 0.5 0.5h0.5 2 0.5c0.276 0 0.5-0.224 0.5-0.5s-0.224-0.5-0.5-0.5h-0.5-2v-3-0.5c0-0.276-0.224-0.5-0.5-0.5z"
                  fill="#bdc3c7" transform="translate(0 1028.4)"/>
            <path d="m18.5 1041.4c-3.038 0-5.5 2.4-5.5 5.5 0 3 2.462 5.5 5.5 5.5s5.5-2.5 5.5-5.5c0-3.1-2.462-5.5-5.5-5.5zm0 1c2.485 0 4.5 2 4.5 4.5 0 2.4-2.015 4.5-4.5 4.5s-4.5-2.1-4.5-4.5c0-2.5 2.015-4.5 4.5-4.5z"
                  fill="#7f8c8d"/>
            <path d="m27 17.5c0 0.276-0.224 0.5-0.5 0.5s-0.5-0.224-0.5-0.5 0.224-0.5 0.5-0.5 0.5 0.224 0.5 0.5z"
                  fill="#95a5a6" transform="translate(-8 1029.4)"/>
        </g>
    </symbol>


</svg>
