<svg width="16" height="14" viewBox="0 0 16 14" fill="none" xmlns="http://www.w3.org/2000/svg">
<path d="M3.14364 5.70935C2.60756 5.07775 1.66097 5.00032 1.02938 5.53639C0.397781 6.07247 0.320348 7.01906 0.856425 7.65065L3.14364 5.70935ZM5.6667 11L4.52309 11.9707L5.61789 13.2605L6.76734 12.0191L5.6667 11ZM15.1006 3.01911C15.6635 2.41124 15.627 1.4622 15.0191 0.899358C14.4112 0.336518 13.4622 0.37302 12.8994 0.980887L15.1006 3.01911ZM0.856425 7.65065L4.52309 11.9707L6.8103 10.0293L3.14364 5.70935L0.856425 7.65065ZM6.76734 12.0191L15.1006 3.01911L12.8994 0.980887L4.56606 9.98089L6.76734 12.0191Z" fill="#6DFE60"/>
</svg>
