<svg width="41" height="40" viewBox="0 0 41 40" fill="none" xmlns="http://www.w3.org/2000/svg">
<g clip-path="url(#clip0)">
<path d="M20.0356 39C30.5291 39 39.0356 30.4934 39.0356 20C39.0356 9.50659 30.5291 1 20.0356 1C9.54224 1 1.03564 9.50659 1.03564 20C1.03564 30.4934 9.54224 39 20.0356 39Z" fill="white" stroke="#757575" stroke-width="2"/>
<path d="M9.06787 34.2128C9.06787 16.5098 31.0033 16.5098 31.0033 34.2128C26.5356 41 14.0356 41 9.06787 34.2128Z" fill="#757575"/>
<path d="M20.0355 24.8063C23.8911 24.8063 26.842 21.3684 26.842 17.3547C26.842 15.4833 26.5088 13.6095 25.4285 12.1877C24.3073 10.712 22.5232 9.90308 20.0355 9.90308C17.5478 9.90308 15.7638 10.712 14.6425 12.1877C13.5622 13.6095 13.2291 15.4833 13.2291 17.3547C13.2291 21.3684 16.1799 24.8063 20.0355 24.8063Z" fill="#757575" stroke="white" stroke-width="2"/>
</g>
<defs>
<clipPath id="clip0">
<rect width="40" height="40" fill="white" transform="translate(0.0356445)"/>
</clipPath>
</defs>
</svg>
